<?xml version="1.0" encoding="UTF-8" standalone="no"?>
<!DOCTYPE svg PUBLIC "-//W3C//DTD SVG 1.1//EN" "http://www.w3.org/Graphics/SVG/1.1/DTD/svg11.dtd">
<svg width="100%" height="100%" viewBox="0 0 78 78" version="1.1" xmlns="http://www.w3.org/2000/svg" xmlns:xlink="http://www.w3.org/1999/xlink" xml:space="preserve" xmlns:serif="http://www.serif.com/" style="fill-rule:evenodd;clip-rule:evenodd;stroke-miterlimit:2;">
    <g transform="matrix(1,0,0,1,-122,-19)">
        <g transform="matrix(0.94663,-0.322321,0.322321,0.94663,-59.8606,33.547)">
            <path d="M193,92.249C193,92.249 183.25,90 175.5,97.499C175.5,97.499 166.5,111.75 165,116.249L162,119.499C162,119.499 164.63,118.126 167.25,118.999C168,119.25 184.25,118.5 190.25,112.999C190.25,112.999 196.25,110.5 199.5,101.999C199.5,101.999 199.25,102.5 193,92.249Z" style="fill:none;stroke:black;stroke-width:1px;"/>
        </g>
        <g transform="matrix(0.94663,-0.322321,0.322321,0.94663,-59.8606,33.547)">
            <path d="M221.25,74.249C221.25,74.249 233.75,68.25 238,70.499" style="fill:white;fill-rule:nonzero;"/>
        </g>
        <g transform="matrix(0.94663,-0.322321,0.322321,0.94663,-59.8606,33.547)">
            <path d="M221.25,74.249C221.25,74.249 233.75,68.25 238,70.499" style="fill:none;stroke:black;stroke-width:1px;"/>
        </g>
        <g transform="matrix(0.94663,-0.322321,0.322321,0.94663,-59.8606,33.547)">
            <path d="M201.25,101.999C209.5,96.75 228,81.999 228,81.999C240.25,72.75 238,70.499 238,70.499" style="fill:white;fill-rule:nonzero;"/>
        </g>
        <g transform="matrix(0.94663,-0.322321,0.322321,0.94663,-59.8606,33.547)">
            <path d="M201.25,101.999C209.5,96.75 228,81.999 228,81.999C240.25,72.75 238,70.499 238,70.499" style="fill:none;stroke:black;stroke-width:1px;"/>
        </g>
        <g transform="matrix(0.94663,-0.322321,0.322321,0.94663,-59.8606,33.547)">
            <path d="M221.25,74.249C221.25,74.249 204,82 193,91.499" style="fill:white;fill-rule:nonzero;"/>
        </g>
        <g transform="matrix(0.94663,-0.322321,0.322321,0.94663,-59.8606,33.547)">
            <path d="M221.25,74.249C221.25,74.249 204,82 193,91.499" style="fill:none;stroke:black;stroke-width:1px;"/>
        </g>
        <g transform="matrix(0.94663,-0.322321,0.322321,0.94663,-59.8606,33.547)">
            <path d="M193,91.499C193,91.499 192.25,100.75 201.25,101.999" style="fill:white;fill-rule:nonzero;"/>
        </g>
        <g transform="matrix(0.94663,-0.322321,0.322321,0.94663,-59.8606,33.547)">
            <path d="M193,91.499C193,91.499 192.25,100.75 201.25,101.999" style="fill:none;stroke:black;stroke-width:1px;"/>
        </g>
        <g transform="matrix(0.94663,-0.322321,0.322321,0.94663,-59.8606,33.547)">
            <path d="M194.25,90.499L194.25,84.749L208,80.999" style="fill-rule:nonzero;"/>
        </g>
        <g transform="matrix(0.94663,-0.322321,0.322321,0.94663,-59.8606,33.547)">
            <path d="M194.25,90.499L194.25,84.749L208,80.999" style="fill:none;stroke:black;stroke-width:1px;"/>
        </g>
        <g transform="matrix(0.94663,-0.322321,0.322321,0.94663,-59.8606,33.547)">
            <path d="M203,100.999L208,101.999L216,91.249" style="fill-rule:nonzero;"/>
        </g>
        <g transform="matrix(0.94663,-0.322321,0.322321,0.94663,-59.8606,33.547)">
            <path d="M203,100.999L208,101.999L216,91.249" style="fill:none;stroke:black;stroke-width:1px;"/>
        </g>
        <g transform="matrix(0.94663,-0.322321,0.322321,0.94663,-59.8606,33.547)">
            <path d="M191.5,96.749C191.5,96.749 178.5,97 176.5,105.249C176.5,105.249 175.5,108.75 173.75,110.749C173.75,110.749 178,109.25 181.75,109.999C181.75,109.999 187.5,110.5 195.5,101.999C195.5,101.999 193,102 191.5,96.749Z" style="fill:rgb(192,192,192);fill-rule:nonzero;"/>
        </g>
        <g transform="matrix(0.94663,-0.322321,0.322321,0.94663,-59.8606,33.547)">
            <path d="M191.5,96.749C191.5,96.749 178.5,97 176.5,105.249C176.5,105.249 175.5,108.75 173.75,110.749C173.75,110.749 178,109.25 181.75,109.999C181.75,109.999 187.5,110.5 195.5,101.999C195.5,101.999 193,102 191.5,96.749Z" style="fill:none;stroke:black;stroke-width:1px;"/>
        </g>
    </g>
</svg>
